<mxfile host="app.diagrams.net" modified="2023-09-27T00:21:13.954Z" agent="Mozilla/5.0 (Windows NT 10.0; Win64; x64) AppleWebKit/537.36 (KHTML, like Gecko) Chrome/116.0.0.0 Safari/537.36" etag="XuL3UdVZu3jMXZBWKY2P" version="21.8.2" type="device">
  <diagram id="C5RBs43oDa-KdzZeNtuy" name="Page-1">
    <mxGraphModel dx="429" dy="214" grid="1" gridSize="10" guides="1" tooltips="1" connect="1" arrows="1" fold="1" page="1" pageScale="1" pageWidth="827" pageHeight="1169" math="0" shadow="0">
      <root>
        <mxCell id="WIyWlLk6GJQsqaUBKTNV-0" />
        <mxCell id="WIyWlLk6GJQsqaUBKTNV-1" parent="WIyWlLk6GJQsqaUBKTNV-0" />
        <mxCell id="U2XpextTqMyxYF58ecUT-54" style="edgeStyle=orthogonalEdgeStyle;rounded=0;orthogonalLoop=1;jettySize=auto;html=1;entryX=0.5;entryY=1;entryDx=0;entryDy=0;endArrow=none;endFill=0;" parent="WIyWlLk6GJQsqaUBKTNV-1" source="U2XpextTqMyxYF58ecUT-0" target="U2XpextTqMyxYF58ecUT-48" edge="1">
          <mxGeometry relative="1" as="geometry" />
        </mxCell>
        <mxCell id="U2XpextTqMyxYF58ecUT-55" value="0, n" style="edgeLabel;html=1;align=center;verticalAlign=middle;resizable=0;points=[];" parent="U2XpextTqMyxYF58ecUT-54" vertex="1" connectable="0">
          <mxGeometry x="-0.5826" relative="1" as="geometry">
            <mxPoint as="offset" />
          </mxGeometry>
        </mxCell>
        <mxCell id="U2XpextTqMyxYF58ecUT-56" value="0, n" style="edgeLabel;html=1;align=center;verticalAlign=middle;resizable=0;points=[];" parent="U2XpextTqMyxYF58ecUT-54" vertex="1" connectable="0">
          <mxGeometry x="0.5826" y="1" relative="1" as="geometry">
            <mxPoint as="offset" />
          </mxGeometry>
        </mxCell>
        <mxCell id="wPhLY7xWn341BuZvgzof-0" value="avaliação" style="edgeLabel;html=1;align=center;verticalAlign=middle;resizable=0;points=[];" vertex="1" connectable="0" parent="U2XpextTqMyxYF58ecUT-54">
          <mxGeometry x="-0.0115" y="1" relative="1" as="geometry">
            <mxPoint as="offset" />
          </mxGeometry>
        </mxCell>
        <mxCell id="U2XpextTqMyxYF58ecUT-0" value="Grupo" style="swimlane;fontStyle=2;align=center;verticalAlign=top;childLayout=stackLayout;horizontal=1;startSize=26;horizontalStack=0;resizeParent=1;resizeLast=0;collapsible=1;marginBottom=0;rounded=0;shadow=0;strokeWidth=1;" parent="WIyWlLk6GJQsqaUBKTNV-1" vertex="1">
          <mxGeometry x="294" y="619" width="160" height="164" as="geometry">
            <mxRectangle x="230" y="140" width="160" height="26" as="alternateBounds" />
          </mxGeometry>
        </mxCell>
        <mxCell id="U2XpextTqMyxYF58ecUT-1" style="edgeStyle=orthogonalEdgeStyle;rounded=0;orthogonalLoop=1;jettySize=auto;html=1;endArrow=none;endFill=0;startArrow=diamondThin;startFill=1;" parent="U2XpextTqMyxYF58ecUT-0" source="U2XpextTqMyxYF58ecUT-5" edge="1">
          <mxGeometry relative="1" as="geometry">
            <mxPoint x="-114" y="-79" as="targetPoint" />
          </mxGeometry>
        </mxCell>
        <mxCell id="U2XpextTqMyxYF58ecUT-2" value="1" style="edgeLabel;html=1;align=center;verticalAlign=middle;resizable=0;points=[];" parent="U2XpextTqMyxYF58ecUT-1" vertex="1" connectable="0">
          <mxGeometry x="-0.72" relative="1" as="geometry">
            <mxPoint as="offset" />
          </mxGeometry>
        </mxCell>
        <mxCell id="U2XpextTqMyxYF58ecUT-3" value="1, 4" style="edgeLabel;html=1;align=center;verticalAlign=middle;resizable=0;points=[];" parent="U2XpextTqMyxYF58ecUT-1" vertex="1" connectable="0">
          <mxGeometry x="0.8193" y="-1" relative="1" as="geometry">
            <mxPoint as="offset" />
          </mxGeometry>
        </mxCell>
        <mxCell id="U2XpextTqMyxYF58ecUT-4" value="membros" style="edgeLabel;html=1;align=center;verticalAlign=middle;resizable=0;points=[];" parent="U2XpextTqMyxYF58ecUT-1" vertex="1" connectable="0">
          <mxGeometry x="-0.1858" relative="1" as="geometry">
            <mxPoint x="-24" y="-28" as="offset" />
          </mxGeometry>
        </mxCell>
        <mxCell id="U2XpextTqMyxYF58ecUT-5" value="- nome: string" style="text;align=left;verticalAlign=top;spacingLeft=4;spacingRight=4;overflow=hidden;rotatable=0;points=[[0,0.5],[1,0.5]];portConstraint=eastwest;" parent="U2XpextTqMyxYF58ecUT-0" vertex="1">
          <mxGeometry y="26" width="160" height="26" as="geometry" />
        </mxCell>
        <mxCell id="U2XpextTqMyxYF58ecUT-6" value="- líder: Aluno" style="text;align=left;verticalAlign=top;spacingLeft=4;spacingRight=4;overflow=hidden;rotatable=0;points=[[0,0.5],[1,0.5]];portConstraint=eastwest;" parent="U2XpextTqMyxYF58ecUT-0" vertex="1">
          <mxGeometry y="52" width="160" height="26" as="geometry" />
        </mxCell>
        <mxCell id="U2XpextTqMyxYF58ecUT-7" value="- Membros: Aluno" style="text;align=left;verticalAlign=top;spacingLeft=4;spacingRight=4;overflow=hidden;rotatable=0;points=[[0,0.5],[1,0.5]];portConstraint=eastwest;" parent="U2XpextTqMyxYF58ecUT-0" vertex="1">
          <mxGeometry y="78" width="160" height="26" as="geometry" />
        </mxCell>
        <mxCell id="U2XpextTqMyxYF58ecUT-8" value="- diaApresentação: Date" style="text;align=left;verticalAlign=top;spacingLeft=4;spacingRight=4;overflow=hidden;rotatable=0;points=[[0,0.5],[1,0.5]];portConstraint=eastwest;" parent="U2XpextTqMyxYF58ecUT-0" vertex="1">
          <mxGeometry y="104" width="160" height="26" as="geometry" />
        </mxCell>
        <mxCell id="U2XpextTqMyxYF58ecUT-9" value="- estande: int" style="text;align=left;verticalAlign=top;spacingLeft=4;spacingRight=4;overflow=hidden;rotatable=0;points=[[0,0.5],[1,0.5]];portConstraint=eastwest;" parent="U2XpextTqMyxYF58ecUT-0" vertex="1">
          <mxGeometry y="130" width="160" height="26" as="geometry" />
        </mxCell>
        <mxCell id="U2XpextTqMyxYF58ecUT-10" value="" style="line;html=1;strokeWidth=1;align=left;verticalAlign=middle;spacingTop=-1;spacingLeft=3;spacingRight=3;rotatable=0;labelPosition=right;points=[];portConstraint=eastwest;" parent="U2XpextTqMyxYF58ecUT-0" vertex="1">
          <mxGeometry y="156" width="160" height="8" as="geometry" />
        </mxCell>
        <mxCell id="U2XpextTqMyxYF58ecUT-11" style="edgeStyle=orthogonalEdgeStyle;rounded=0;orthogonalLoop=1;jettySize=auto;html=1;endArrow=none;endFill=0;" parent="U2XpextTqMyxYF58ecUT-0" edge="1">
          <mxGeometry relative="1" as="geometry">
            <mxPoint x="-154" y="-79" as="targetPoint" />
            <mxPoint y="125" as="sourcePoint" />
          </mxGeometry>
        </mxCell>
        <mxCell id="U2XpextTqMyxYF58ecUT-12" value="1" style="edgeLabel;html=1;align=center;verticalAlign=middle;resizable=0;points=[];" parent="U2XpextTqMyxYF58ecUT-11" vertex="1" connectable="0">
          <mxGeometry x="-0.8105" relative="1" as="geometry">
            <mxPoint as="offset" />
          </mxGeometry>
        </mxCell>
        <mxCell id="U2XpextTqMyxYF58ecUT-13" value="1" style="edgeLabel;html=1;align=center;verticalAlign=middle;resizable=0;points=[];" parent="U2XpextTqMyxYF58ecUT-11" vertex="1" connectable="0">
          <mxGeometry x="0.8714" relative="1" as="geometry">
            <mxPoint as="offset" />
          </mxGeometry>
        </mxCell>
        <mxCell id="U2XpextTqMyxYF58ecUT-14" value="líder" style="edgeLabel;html=1;align=center;verticalAlign=middle;resizable=0;points=[];" parent="U2XpextTqMyxYF58ecUT-11" vertex="1" connectable="0">
          <mxGeometry x="-0.0902" y="1" relative="1" as="geometry">
            <mxPoint x="1" y="-23" as="offset" />
          </mxGeometry>
        </mxCell>
        <mxCell id="U2XpextTqMyxYF58ecUT-15" style="edgeStyle=orthogonalEdgeStyle;rounded=0;orthogonalLoop=1;jettySize=auto;html=1;entryX=1;entryY=0.5;entryDx=0;entryDy=0;endArrow=none;endFill=0;" parent="WIyWlLk6GJQsqaUBKTNV-1" source="U2XpextTqMyxYF58ecUT-18" target="U2XpextTqMyxYF58ecUT-5" edge="1">
          <mxGeometry relative="1" as="geometry">
            <Array as="points">
              <mxPoint x="454" y="650" />
            </Array>
          </mxGeometry>
        </mxCell>
        <mxCell id="U2XpextTqMyxYF58ecUT-16" value="0, 3" style="edgeLabel;html=1;align=center;verticalAlign=middle;resizable=0;points=[];" parent="U2XpextTqMyxYF58ecUT-15" vertex="1" connectable="0">
          <mxGeometry x="0.7532" relative="1" as="geometry">
            <mxPoint x="19" as="offset" />
          </mxGeometry>
        </mxCell>
        <mxCell id="U2XpextTqMyxYF58ecUT-17" value="1" style="edgeLabel;html=1;align=center;verticalAlign=middle;resizable=0;points=[];" parent="U2XpextTqMyxYF58ecUT-15" vertex="1" connectable="0">
          <mxGeometry x="-0.632" relative="1" as="geometry">
            <mxPoint as="offset" />
          </mxGeometry>
        </mxCell>
        <mxCell id="U2XpextTqMyxYF58ecUT-18" value="Estande" style="swimlane;fontStyle=2;align=center;verticalAlign=top;childLayout=stackLayout;horizontal=1;startSize=26;horizontalStack=0;resizeParent=1;resizeLast=0;collapsible=1;marginBottom=0;rounded=0;shadow=0;strokeWidth=1;" parent="WIyWlLk6GJQsqaUBKTNV-1" vertex="1">
          <mxGeometry x="570" y="619" width="160" height="60" as="geometry">
            <mxRectangle x="230" y="140" width="160" height="26" as="alternateBounds" />
          </mxGeometry>
        </mxCell>
        <mxCell id="U2XpextTqMyxYF58ecUT-19" value="- número: int" style="text;align=left;verticalAlign=top;spacingLeft=4;spacingRight=4;overflow=hidden;rotatable=0;points=[[0,0.5],[1,0.5]];portConstraint=eastwest;" parent="U2XpextTqMyxYF58ecUT-18" vertex="1">
          <mxGeometry y="26" width="160" height="26" as="geometry" />
        </mxCell>
        <mxCell id="U2XpextTqMyxYF58ecUT-20" value="" style="line;html=1;strokeWidth=1;align=left;verticalAlign=middle;spacingTop=-1;spacingLeft=3;spacingRight=3;rotatable=0;labelPosition=right;points=[];portConstraint=eastwest;" parent="U2XpextTqMyxYF58ecUT-18" vertex="1">
          <mxGeometry y="52" width="160" height="8" as="geometry" />
        </mxCell>
        <mxCell id="U2XpextTqMyxYF58ecUT-32" style="edgeStyle=orthogonalEdgeStyle;rounded=0;orthogonalLoop=1;jettySize=auto;html=1;entryX=0.5;entryY=0;entryDx=0;entryDy=0;endArrow=block;endFill=0;dashed=1;" parent="WIyWlLk6GJQsqaUBKTNV-1" source="U2XpextTqMyxYF58ecUT-34" target="U2XpextTqMyxYF58ecUT-48" edge="1">
          <mxGeometry relative="1" as="geometry">
            <Array as="points">
              <mxPoint x="270" y="474" />
              <mxPoint x="270" y="390" />
              <mxPoint x="374" y="390" />
            </Array>
          </mxGeometry>
        </mxCell>
        <mxCell id="U2XpextTqMyxYF58ecUT-33" value="0, n" style="edgeLabel;html=1;align=center;verticalAlign=middle;resizable=0;points=[];" parent="U2XpextTqMyxYF58ecUT-32" vertex="1" connectable="0">
          <mxGeometry x="-0.8322" y="-1" relative="1" as="geometry">
            <mxPoint x="8" y="-25" as="offset" />
          </mxGeometry>
        </mxCell>
        <mxCell id="U2XpextTqMyxYF58ecUT-34" value="Aluno" style="swimlane;fontStyle=2;align=center;verticalAlign=top;childLayout=stackLayout;horizontal=1;startSize=26;horizontalStack=0;resizeParent=1;resizeLast=0;collapsible=1;marginBottom=0;rounded=0;shadow=0;strokeWidth=1;" parent="WIyWlLk6GJQsqaUBKTNV-1" vertex="1">
          <mxGeometry x="80" y="429" width="160" height="112" as="geometry">
            <mxRectangle x="230" y="140" width="160" height="26" as="alternateBounds" />
          </mxGeometry>
        </mxCell>
        <mxCell id="U2XpextTqMyxYF58ecUT-35" value="- matrícula: string" style="text;align=left;verticalAlign=top;spacingLeft=4;spacingRight=4;overflow=hidden;rotatable=0;points=[[0,0.5],[1,0.5]];portConstraint=eastwest;" parent="U2XpextTqMyxYF58ecUT-34" vertex="1">
          <mxGeometry y="26" width="160" height="26" as="geometry" />
        </mxCell>
        <mxCell id="U2XpextTqMyxYF58ecUT-36" value="- nome: string" style="text;align=left;verticalAlign=top;spacingLeft=4;spacingRight=4;overflow=hidden;rotatable=0;points=[[0,0.5],[1,0.5]];portConstraint=eastwest;" parent="U2XpextTqMyxYF58ecUT-34" vertex="1">
          <mxGeometry y="52" width="160" height="26" as="geometry" />
        </mxCell>
        <mxCell id="U2XpextTqMyxYF58ecUT-37" value="- email: string" style="text;align=left;verticalAlign=top;spacingLeft=4;spacingRight=4;overflow=hidden;rotatable=0;points=[[0,0.5],[1,0.5]];portConstraint=eastwest;" parent="U2XpextTqMyxYF58ecUT-34" vertex="1">
          <mxGeometry y="78" width="160" height="26" as="geometry" />
        </mxCell>
        <mxCell id="U2XpextTqMyxYF58ecUT-38" value="" style="line;html=1;strokeWidth=1;align=left;verticalAlign=middle;spacingTop=-1;spacingLeft=3;spacingRight=3;rotatable=0;labelPosition=right;points=[];portConstraint=eastwest;" parent="U2XpextTqMyxYF58ecUT-34" vertex="1">
          <mxGeometry y="104" width="160" height="8" as="geometry" />
        </mxCell>
        <mxCell id="U2XpextTqMyxYF58ecUT-39" style="edgeStyle=orthogonalEdgeStyle;rounded=0;orthogonalLoop=1;jettySize=auto;html=1;entryX=0.5;entryY=0;entryDx=0;entryDy=0;endArrow=block;endFill=0;dashed=1;" parent="WIyWlLk6GJQsqaUBKTNV-1" source="U2XpextTqMyxYF58ecUT-42" target="U2XpextTqMyxYF58ecUT-48" edge="1">
          <mxGeometry relative="1" as="geometry">
            <Array as="points">
              <mxPoint x="270" y="275" />
              <mxPoint x="270" y="390" />
              <mxPoint x="374" y="390" />
            </Array>
          </mxGeometry>
        </mxCell>
        <mxCell id="U2XpextTqMyxYF58ecUT-40" value="0, n" style="edgeLabel;html=1;align=center;verticalAlign=middle;resizable=0;points=[];" parent="U2XpextTqMyxYF58ecUT-39" vertex="1" connectable="0">
          <mxGeometry x="-0.8322" y="-1" relative="1" as="geometry">
            <mxPoint x="6" y="24" as="offset" />
          </mxGeometry>
        </mxCell>
        <mxCell id="U2XpextTqMyxYF58ecUT-41" value="1" style="edgeLabel;html=1;align=center;verticalAlign=middle;resizable=0;points=[];" parent="U2XpextTqMyxYF58ecUT-39" vertex="1" connectable="0">
          <mxGeometry x="0.7621" relative="1" as="geometry">
            <mxPoint x="-14" y="-5" as="offset" />
          </mxGeometry>
        </mxCell>
        <mxCell id="U2XpextTqMyxYF58ecUT-42" value="Professor" style="swimlane;fontStyle=2;align=center;verticalAlign=top;childLayout=stackLayout;horizontal=1;startSize=26;horizontalStack=0;resizeParent=1;resizeLast=0;collapsible=1;marginBottom=0;rounded=0;shadow=0;strokeWidth=1;" parent="WIyWlLk6GJQsqaUBKTNV-1" vertex="1">
          <mxGeometry x="80" y="230" width="160" height="164" as="geometry">
            <mxRectangle x="230" y="140" width="160" height="26" as="alternateBounds" />
          </mxGeometry>
        </mxCell>
        <mxCell id="U2XpextTqMyxYF58ecUT-43" value="- matrícula: string" style="text;align=left;verticalAlign=top;spacingLeft=4;spacingRight=4;overflow=hidden;rotatable=0;points=[[0,0.5],[1,0.5]];portConstraint=eastwest;" parent="U2XpextTqMyxYF58ecUT-42" vertex="1">
          <mxGeometry y="26" width="160" height="26" as="geometry" />
        </mxCell>
        <mxCell id="U2XpextTqMyxYF58ecUT-44" value="- nome: string" style="text;align=left;verticalAlign=top;spacingLeft=4;spacingRight=4;overflow=hidden;rotatable=0;points=[[0,0.5],[1,0.5]];portConstraint=eastwest;" parent="U2XpextTqMyxYF58ecUT-42" vertex="1">
          <mxGeometry y="52" width="160" height="26" as="geometry" />
        </mxCell>
        <mxCell id="U2XpextTqMyxYF58ecUT-45" value="- email: string" style="text;align=left;verticalAlign=top;spacingLeft=4;spacingRight=4;overflow=hidden;rotatable=0;points=[[0,0.5],[1,0.5]];portConstraint=eastwest;" parent="U2XpextTqMyxYF58ecUT-42" vertex="1">
          <mxGeometry y="78" width="160" height="26" as="geometry" />
        </mxCell>
        <mxCell id="U2XpextTqMyxYF58ecUT-46" value="" style="line;html=1;strokeWidth=1;align=left;verticalAlign=middle;spacingTop=-1;spacingLeft=3;spacingRight=3;rotatable=0;labelPosition=right;points=[];portConstraint=eastwest;" parent="U2XpextTqMyxYF58ecUT-42" vertex="1">
          <mxGeometry y="104" width="160" height="8" as="geometry" />
        </mxCell>
        <mxCell id="U2XpextTqMyxYF58ecUT-47" value="+ calcularNota(): void" style="text;align=left;verticalAlign=top;spacingLeft=4;spacingRight=4;overflow=hidden;rotatable=0;points=[[0,0.5],[1,0.5]];portConstraint=eastwest;" parent="U2XpextTqMyxYF58ecUT-42" vertex="1">
          <mxGeometry y="112" width="160" height="26" as="geometry" />
        </mxCell>
        <mxCell id="wPhLY7xWn341BuZvgzof-1" value="+ visualizarNota(): float" style="text;align=left;verticalAlign=top;spacingLeft=4;spacingRight=4;overflow=hidden;rotatable=0;points=[[0,0.5],[1,0.5]];portConstraint=eastwest;" vertex="1" parent="U2XpextTqMyxYF58ecUT-42">
          <mxGeometry y="138" width="160" height="26" as="geometry" />
        </mxCell>
        <mxCell id="U2XpextTqMyxYF58ecUT-48" value="Avaliador" style="swimlane;fontStyle=2;align=center;verticalAlign=top;childLayout=stackLayout;horizontal=1;startSize=26;horizontalStack=0;resizeParent=1;resizeLast=0;collapsible=1;marginBottom=0;rounded=0;shadow=0;strokeWidth=1;" parent="WIyWlLk6GJQsqaUBKTNV-1" vertex="1">
          <mxGeometry x="294" y="429" width="160" height="61" as="geometry">
            <mxRectangle x="230" y="140" width="160" height="26" as="alternateBounds" />
          </mxGeometry>
        </mxCell>
        <mxCell id="U2XpextTqMyxYF58ecUT-49" value="" style="line;html=1;strokeWidth=1;align=left;verticalAlign=middle;spacingTop=-1;spacingLeft=3;spacingRight=3;rotatable=0;labelPosition=right;points=[];portConstraint=eastwest;" parent="U2XpextTqMyxYF58ecUT-48" vertex="1">
          <mxGeometry y="26" width="160" height="8" as="geometry" />
        </mxCell>
        <mxCell id="U2XpextTqMyxYF58ecUT-50" value="+ avaliarGrupo()" style="text;align=left;verticalAlign=top;spacingLeft=4;spacingRight=4;overflow=hidden;rotatable=0;points=[[0,0.5],[1,0.5]];portConstraint=eastwest;" parent="U2XpextTqMyxYF58ecUT-48" vertex="1">
          <mxGeometry y="34" width="160" height="26" as="geometry" />
        </mxCell>
      </root>
    </mxGraphModel>
  </diagram>
</mxfile>
